# xmcd
#
# Track frame offsets:
#	150
#	15844
#	26982
#	42021
#	54324
#	71050
#	80731
#	94426
#	105117
#	118259
#	133575
#	146869
#	158637
#	170551
#	184734
#	195408
#	204219
#	215180
#	229601
#	242117
#	260435
#	272631
#	287580
#	304945
#	319380
#	333564
#	346444
#
# Disc length: 4796 seconds
#
# Revision: 1
# Processed by: cddbd v1.4PL0 Copyright (c) Steve Scherf et al.
# Submitted via: audiograbber 1.81.02
#
DISCID=9312ba1b
DTITLE=Beatriz Adriana - Rancherísimo
DYEAR=1900
DGENRE=Ranchero
TTITLE0=Intro Mix
TTITLE1=Si Nos Dejan
TTITLE2=Hasta Cuando
TTITLE3=El Cofrecito
TTITLE4=Popurrí Ranchero
TTITLE5=La Basurita
TTITLE6=Anillo De Compromiso
TTITLE7=Aceptame
TTITLE8=Tu Burla
TTITLE9=Yo No Soy Monedita de Oro
TTITLE10=Cruz De Olvido
TTITLE11=Apoco No
TTITLE12=El Quihubole
TTITLE13=Adiós Y Bienvenida
TTITLE14=Las Margaritas
TTITLE15=Dos Palomas Al Volar
TTITLE16=Esta Situación
TTITLE17=Golondrina Presumida
TTITLE18=Un Mar De Penas
TTITLE19=Amor Con Amor Se Paga
TTITLE20=De Que Manera Te Olvido
TTITLE21=Que Bonita Es Mi Tierra
TTITLE22=Que Sola Estoy Sin Ti
TTITLE23=Sigue Sin Mi
TTITLE24=La Diferencia
TTITLE25=Allá En El Rancho Grande
TTITLE26=Ya Ves
EXTD=
EXTT0=
EXTT1=
EXTT2=
EXTT3=
EXTT4=
EXTT5=
EXTT6=
EXTT7=
EXTT8=
EXTT9=
EXTT10=
EXTT11=
EXTT12=
EXTT13=
EXTT14=
EXTT15=
EXTT16=
EXTT17=
EXTT18=
EXTT19=
EXTT20=
EXTT21=
EXTT22=
EXTT23=
EXTT24=
EXTT25=
EXTT26=
PLAYORDER=
